<svg viewBox="0 0 32 32" fill="none" xmlns="http://www.w3.org/2000/svg">
<path fill-rule="evenodd" clip-rule="evenodd" d="M21.5995 8.34614L19.8287 7.32373L18.7208 4H13.2792L12.1713 7.32374L10.4004 8.34618L6.96804 7.64379L4.24728 12.3563L6.57176 14.9776L6.57179 17.0224L4.24732 19.6438L6.96807 24.3562L10.4005 23.6539L12.1714 24.6762L13.2793 28H18.7208L19.8287 24.6762L21.5996 23.6538L25.032 24.3562L27.7527 19.6437L25.4282 17.0224L25.4282 14.9776L27.7527 12.3562L25.0319 7.64375L21.5995 8.34614ZM11 16C11 13.2386 13.2386 11 16 11C18.7614 11 21 13.2386 21 16C21 18.7614 18.7614 21 16 21C13.2386 21 11 18.7614 11 16Z" fill="#F06543"/>
</svg>
